# xmcd
#
# Track frame offsets:
# 150
# 22825
# 39875
# 63681
# 96436
# 116143
# 130170
# 151599
# 172252
# 200572
# 235167
# 251749
# 270304
# 282946
# 299802
# 315562
#
# Disc length: 4507 seconds
#
#
# Revision: 1
# Processed by: cddbd v1.5.2PL0 Copyright (c) Steve Scherf et al.
# Submitted via: FreeRIP 2.00 
#
DISCID=ea119910
DTITLE=Buddy Guy - Bring 'em In
DYEAR=2005
DGENRE=Blues
TTITLE0=No You're Gone
TTITLE1=Ninety Nine And
TTITLE2=What Kinda Woman Is This
TTITLE3=Somebody's Been Sleeping In My Bed
TTITLE4=I Put A Spell On You (With Carlos Santana)
TTITLE5=On A Saturday Night
TTITLE6=I've Got Dreams To Remember (with John Mayer)
TTITLE7=Lay Lady Lay (with Anthony Hamilton)
TTITLE8=Cut You Loose
TTITLE9=Flashback Blues
TTITLE10=Price You've Gotta Pay
TTITLE11=Do Your Thing
TTITLE12=Hard Time Killing Floor
TTITLE13=Bad Life Blues
TTITLE14=Moanin' And Groanin'
TTITLE15=Lonesome Home Blues
EXTD=
EXTT0=
EXTT1=
EXTT2=
EXTT3=
EXTT4=
EXTT5=
EXTT6=
EXTT7=
EXTT8=
EXTT9=
EXTT10=
EXTT11=
EXTT12=
EXTT13=
EXTT14=
EXTT15=
PLAYORDER=
